<svg width="20" height="20" viewBox="0 0 20 20" fill="none" xmlns="http://www.w3.org/2000/svg">
<path d="M9.99996 1.66675C8.90561 1.66675 7.82198 1.8823 6.81093 2.30109C5.79988 2.71987 4.88122 3.3337 4.1074 4.10752C2.5446 5.67033 1.66663 7.78994 1.66663 10.0001C1.66663 13.6834 4.05829 16.8084 7.36663 17.9167C7.78329 17.9834 7.91663 17.7251 7.91663 17.5001V16.0917C5.60829 16.5917 5.11663 14.9751 5.11663 14.9751C4.73329 14.0084 4.19163 13.7501 4.19163 13.7501C3.43329 13.2334 4.24996 13.2501 4.24996 13.2501C5.08329 13.3084 5.52496 14.1084 5.52496 14.1084C6.24996 15.3751 7.47496 15.0001 7.94996 14.8001C8.02496 14.2584 8.24163 13.8917 8.47496 13.6834C6.62496 13.4751 4.68329 12.7584 4.68329 9.58342C4.68329 8.65842 4.99996 7.91675 5.54163 7.32508C5.45829 7.11675 5.16663 6.25008 5.62496 5.12508C5.62496 5.12508 6.32496 4.90008 7.91663 5.97508C8.57496 5.79175 9.29163 5.70008 9.99996 5.70008C10.7083 5.70008 11.425 5.79175 12.0833 5.97508C13.675 4.90008 14.375 5.12508 14.375 5.12508C14.8333 6.25008 14.5416 7.11675 14.4583 7.32508C15 7.91675 15.3166 8.65842 15.3166 9.58342C15.3166 12.7667 13.3666 13.4667 11.5083 13.6751C11.8083 13.9334 12.0833 14.4417 12.0833 15.2167V17.5001C12.0833 17.7251 12.2166 17.9917 12.6416 17.9167C15.95 16.8001 18.3333 13.6834 18.3333 10.0001C18.3333 8.90573 18.1177 7.8221 17.699 6.81105C17.2802 5.80001 16.6663 4.88135 15.8925 4.10752C15.1187 3.3337 14.2 2.71987 13.189 2.30109C12.1779 1.8823 11.0943 1.66675 9.99996 1.66675Z" fill="#444444"/>
</svg>
