<svg width="30" height="30" viewBox="0 0 30 30" fill="none" xmlns="http://www.w3.org/2000/svg">
<path d="M25.4251 11.65L7.92507 2.90004C7.23443 2.5563 6.45459 2.43393 5.69186 2.5496C4.92913 2.66528 4.22064 3.01338 3.66298 3.54643C3.10532 4.07949 2.72563 4.77157 2.57568 5.5283C2.42573 6.28504 2.51282 7.06961 2.82507 7.77504L5.82507 14.4875C5.89314 14.6498 5.92819 14.8241 5.92819 15C5.92819 15.176 5.89314 15.3502 5.82507 15.5125L2.82507 22.225C2.57094 22.7959 2.46351 23.4213 2.51254 24.0442C2.56156 24.6672 2.76549 25.2681 3.10579 25.7922C3.44609 26.3163 3.91197 26.747 4.46109 27.0453C5.01022 27.3436 5.62517 27.4999 6.25007 27.5C6.83535 27.4942 7.41193 27.3575 7.93756 27.1L25.4376 18.35C26.0583 18.0378 26.5801 17.5592 26.9447 16.9676C27.3093 16.3761 27.5023 15.6949 27.5023 15C27.5023 14.3052 27.3093 13.624 26.9447 13.0324C26.5801 12.4409 26.0583 11.9623 25.4376 11.65H25.4251ZM24.3126 16.1125L6.81256 24.8625C6.58277 24.9729 6.32473 25.0103 6.07305 24.9698C5.82137 24.9294 5.58808 24.8129 5.40446 24.6361C5.22084 24.4593 5.09567 24.2306 5.04573 23.9806C4.99579 23.7306 5.02347 23.4713 5.12507 23.2375L8.11257 16.525C8.15124 16.4354 8.18463 16.3436 8.21257 16.25H16.8251C17.1566 16.25 17.4745 16.1183 17.7089 15.8839C17.9434 15.6495 18.0751 15.3316 18.0751 15C18.0751 14.6685 17.9434 14.3506 17.7089 14.1162C17.4745 13.8817 17.1566 13.75 16.8251 13.75H8.21257C8.18463 13.6565 8.15124 13.5647 8.11257 13.475L5.12507 6.76254C5.02347 6.52874 4.99579 6.26947 5.04573 6.0195C5.09567 5.76952 5.22084 5.54079 5.40446 5.36397C5.58808 5.18715 5.82137 5.0707 6.07305 5.03023C6.32473 4.98976 6.58277 5.0272 6.81256 5.13754L24.3126 13.8875C24.5173 13.9924 24.6891 14.1518 24.8091 14.3481C24.9291 14.5444 24.9926 14.77 24.9926 15C24.9926 15.2301 24.9291 15.4557 24.8091 15.652C24.6891 15.8483 24.5173 16.0076 24.3126 16.1125Z" fill="#444444"/>
</svg>
