<svg width="45" height="45" viewBox="0 0 45 45" fill="none" xmlns="http://www.w3.org/2000/svg">
<g filter="url(#filter0_d_27_567)">
<rect width="44" height="44" rx="22" fill="#EDE0D0" shape-rendering="crispEdges"/>
<rect x="1" y="1" width="42" height="42" rx="21" stroke="#748873" stroke-width="2" shape-rendering="crispEdges"/>
<path d="M26 27V29H12V27C12 27 12 23 19 23C26 23 26 27 26 27ZM22.5 17.5C22.5 16.8078 22.2947 16.1311 21.9101 15.5555C21.5256 14.98 20.9789 14.5314 20.3394 14.2665C19.6999 14.0016 18.9961 13.9322 18.3172 14.0673C17.6382 14.2023 17.0146 14.5357 16.5251 15.0252C16.0356 15.5146 15.7023 16.1383 15.5673 16.8172C15.4322 17.4962 15.5015 18.1999 15.7664 18.8394C16.0313 19.479 16.4799 20.0256 17.0555 20.4102C17.6311 20.7948 18.3078 21 19 21C19.9283 21 20.8185 20.6313 21.4749 19.9749C22.1313 19.3185 22.5 18.4283 22.5 17.5ZM25.94 23C26.5547 23.4758 27.0578 24.0805 27.4137 24.7715C27.7696 25.4626 27.9697 26.2233 28 27V29H32V27C32 27 32 23.37 25.94 23ZM25 14C24.3118 13.9968 23.6388 14.2026 23.07 14.59C23.6774 15.4388 24.0041 16.4563 24.0041 17.5C24.0041 18.5438 23.6774 19.5613 23.07 20.41C23.6388 20.7975 24.3118 21.0032 25 21C25.9283 21 26.8185 20.6313 27.4749 19.9749C28.1313 19.3185 28.5 18.4283 28.5 17.5C28.5 16.5718 28.1313 15.6815 27.4749 15.0252C26.8185 14.3688 25.9283 14 25 14Z" fill="#748873"/>
</g>
<defs>
<filter id="filter0_d_27_567" x="0" y="0" width="45" height="45" filterUnits="userSpaceOnUse" color-interpolation-filters="sRGB">
<feFlood flood-opacity="0" result="BackgroundImageFix"/>
<feColorMatrix in="SourceAlpha" type="matrix" values="0 0 0 0 0 0 0 0 0 0 0 0 0 0 0 0 0 0 127 0" result="hardAlpha"/>
<feOffset dx="1" dy="1"/>
<feComposite in2="hardAlpha" operator="out"/>
<feColorMatrix type="matrix" values="0 0 0 0 0.266667 0 0 0 0 0.266667 0 0 0 0 0.266667 0 0 0 1 0"/>
<feBlend mode="normal" in2="BackgroundImageFix" result="effect1_dropShadow_27_567"/>
<feBlend mode="normal" in="SourceGraphic" in2="effect1_dropShadow_27_567" result="shape"/>
</filter>
</defs>
</svg>
