<svg width="20" height="20" viewBox="0 0 20 20" fill="none" xmlns="http://www.w3.org/2000/svg">
<path d="M14.1665 18.3334C13.4721 18.3334 12.8818 18.0904 12.3957 17.6042C11.9096 17.1181 11.6665 16.5279 11.6665 15.8334C11.6665 15.7501 11.6873 15.5556 11.729 15.2501L5.87484 11.8334C5.65261 12.0417 5.39567 12.2051 5.104 12.3234C4.81234 12.4417 4.49984 12.5006 4.1665 12.5001C3.47206 12.5001 2.88178 12.257 2.39567 11.7709C1.90956 11.2848 1.6665 10.6945 1.6665 10.0001C1.6665 9.30564 1.90956 8.71536 2.39567 8.22925C2.88178 7.74314 3.47206 7.50008 4.1665 7.50008C4.49984 7.50008 4.81234 7.55925 5.104 7.67758C5.39567 7.79592 5.65261 7.95897 5.87484 8.16675L11.729 4.75008C11.7012 4.65286 11.684 4.55925 11.6773 4.46925C11.6707 4.37925 11.6671 4.27841 11.6665 4.16675C11.6665 3.4723 11.9096 2.88203 12.3957 2.39591C12.8818 1.9098 13.4721 1.66675 14.1665 1.66675C14.8609 1.66675 15.4512 1.9098 15.9373 2.39591C16.4234 2.88203 16.6665 3.4723 16.6665 4.16675C16.6665 4.86119 16.4234 5.45147 15.9373 5.93758C15.4512 6.42369 14.8609 6.66675 14.1665 6.66675C13.8332 6.66675 13.5207 6.60758 13.229 6.48925C12.9373 6.37092 12.6804 6.20786 12.4582 6.00008L6.604 9.41675C6.63178 9.51397 6.64928 9.60786 6.6565 9.69841C6.66373 9.78897 6.66706 9.88953 6.6665 10.0001C6.66595 10.1106 6.66261 10.2115 6.6565 10.3026C6.65039 10.3937 6.63289 10.4873 6.604 10.5834L12.4582 14.0001C12.6804 13.7917 12.9373 13.6287 13.229 13.5109C13.5207 13.3931 13.8332 13.334 14.1665 13.3334C14.8609 13.3334 15.4512 13.5765 15.9373 14.0626C16.4234 14.5487 16.6665 15.139 16.6665 15.8334C16.6665 16.5279 16.4234 17.1181 15.9373 17.6042C15.4512 18.0904 14.8609 18.3334 14.1665 18.3334Z" fill="#444444"/>
</svg>
