<svg width="21" height="20" viewBox="0 0 21 20" fill="none" xmlns="http://www.w3.org/2000/svg">
<path d="M10.5008 1.66675C15.1033 1.66675 18.8342 5.39758 18.8342 10.0001C18.8342 14.6026 15.1033 18.3334 10.5008 18.3334C9.02812 18.336 7.58131 17.9462 6.30916 17.2042L2.17083 18.3334L3.29749 14.1934C2.55496 12.9209 2.16491 11.4734 2.16749 10.0001C2.16749 5.39758 5.89833 1.66675 10.5008 1.66675ZM7.66083 6.08341L7.49416 6.09008C7.3864 6.09751 7.28112 6.12581 7.18416 6.17341C7.09381 6.22467 7.01129 6.28866 6.93916 6.36341C6.83916 6.45758 6.78249 6.53925 6.72166 6.61841C6.41343 7.01917 6.24747 7.51118 6.24999 8.01675C6.25166 8.42508 6.35833 8.82258 6.52499 9.19425C6.86583 9.94591 7.42666 10.7417 8.16666 11.4792C8.34499 11.6567 8.51999 11.8351 8.70833 12.0009C9.62785 12.8104 10.7236 13.3942 11.9083 13.7059L12.3817 13.7784C12.5358 13.7867 12.69 13.7751 12.845 13.7676C13.0876 13.7548 13.3246 13.6891 13.5392 13.5751C13.6482 13.5187 13.7547 13.4575 13.8583 13.3917C13.8583 13.3917 13.8936 13.3679 13.9625 13.3167C14.075 13.2334 14.1442 13.1742 14.2375 13.0767C14.3075 13.0045 14.3658 12.9206 14.4125 12.8251C14.4775 12.6892 14.5425 12.4301 14.5692 12.2142C14.5892 12.0492 14.5833 11.9592 14.5808 11.9034C14.5775 11.8142 14.5033 11.7217 14.4225 11.6826L13.9375 11.4651C13.9375 11.4651 13.2125 11.1492 12.7692 10.9476C12.7228 10.9274 12.6731 10.9158 12.6225 10.9134C12.5655 10.9074 12.5078 10.9138 12.4535 10.9321C12.3991 10.9503 12.3493 10.9801 12.3075 11.0192C12.3033 11.0176 12.2475 11.0651 11.645 11.7951C11.6104 11.8415 11.5628 11.8767 11.5082 11.896C11.4535 11.9153 11.3944 11.9178 11.3383 11.9034C11.284 11.8889 11.2308 11.8706 11.1792 11.8484C11.0758 11.8051 11.04 11.7884 10.9692 11.7584C10.4907 11.55 10.0479 11.268 9.65666 10.9226C9.55166 10.8309 9.45416 10.7309 9.35416 10.6342C9.02634 10.3203 8.74062 9.96507 8.50416 9.57758L8.45499 9.49841C8.42021 9.44491 8.39169 9.38759 8.36999 9.32758C8.33833 9.20508 8.42083 9.10675 8.42083 9.10675C8.42083 9.10675 8.62333 8.88508 8.71749 8.76508C8.80916 8.64841 8.88666 8.53508 8.93666 8.45425C9.03499 8.29591 9.06583 8.13341 9.01416 8.00758C8.78083 7.43758 8.53972 6.87064 8.29083 6.30675C8.24166 6.19508 8.09583 6.11508 7.96333 6.09925C7.91833 6.09369 7.87333 6.08925 7.82833 6.08591C7.71643 6.0795 7.60424 6.08061 7.49249 6.08925L7.66083 6.08341Z" fill="#444444"/>
</svg>
